<mxfile host="app.diagrams.net" modified="2021-11-20T06:59:38.392Z" agent="5.0 (Windows NT 10.0; Win64; x64) AppleWebKit/537.36 (KHTML, like Gecko) Chrome/96.0.4664.45 Safari/537.36" etag="vIvrV7k4z0DVVyiGGF18" version="15.8.3" type="github">
  <diagram id="8niMTOHg-mjtYMbXrqAT" name="第 1 页">
    <mxGraphModel dx="1019" dy="613" grid="1" gridSize="10" guides="1" tooltips="1" connect="1" arrows="1" fold="1" page="1" pageScale="1" pageWidth="827" pageHeight="1169" math="0" shadow="0">
      <root>
        <mxCell id="0" />
        <mxCell id="1" parent="0" />
        <mxCell id="mGNgflJzTAv7n1PGVIst-5" value="&lt;h1&gt;页式存储&lt;/h1&gt;&lt;p&gt;&lt;br&gt;&lt;/p&gt;" style="text;html=1;spacing=5;spacingTop=-20;whiteSpace=wrap;overflow=hidden;rounded=1;fillColor=#d5e8d4;strokeColor=#82b366;align=left;strokeWidth=4;shadow=1;glass=0;sketch=0;" vertex="1" parent="1">
          <mxGeometry x="20" y="30" width="190" height="120" as="geometry" />
        </mxCell>
        <mxCell id="mGNgflJzTAv7n1PGVIst-6" value="" style="rounded=1;whiteSpace=wrap;html=1;strokeWidth=5;fillWeight=4;hachureGap=8;hachureAngle=45;fillColor=#d5e8d4;sketch=1;align=left;strokeColor=#82b366;" vertex="1" parent="1">
          <mxGeometry x="260" y="120" width="170" height="70" as="geometry" />
        </mxCell>
        <mxCell id="mGNgflJzTAv7n1PGVIst-7" value="" style="rounded=1;whiteSpace=wrap;html=1;strokeWidth=5;fillWeight=4;hachureGap=8;hachureAngle=45;fillColor=#d5e8d4;sketch=1;align=left;strokeColor=#82b366;" vertex="1" parent="1">
          <mxGeometry x="260" y="190" width="170" height="70" as="geometry" />
        </mxCell>
        <mxCell id="mGNgflJzTAv7n1PGVIst-8" value="" style="rounded=1;whiteSpace=wrap;html=1;strokeWidth=5;fillWeight=4;hachureGap=8;hachureAngle=45;fillColor=#d5e8d4;sketch=1;align=left;strokeColor=#82b366;" vertex="1" parent="1">
          <mxGeometry x="260" y="260" width="170" height="70" as="geometry" />
        </mxCell>
        <mxCell id="mGNgflJzTAv7n1PGVIst-9" value="" style="rounded=1;whiteSpace=wrap;html=1;strokeWidth=5;fillWeight=4;hachureGap=8;hachureAngle=45;fillColor=#d5e8d4;sketch=1;align=left;strokeColor=#82b366;" vertex="1" parent="1">
          <mxGeometry x="260" y="330" width="170" height="70" as="geometry" />
        </mxCell>
        <mxCell id="mGNgflJzTAv7n1PGVIst-14" style="rounded=0;orthogonalLoop=1;jettySize=auto;html=1;fillColor=#d5e8d4;strokeColor=#82B366;strokeWidth=4;" edge="1" parent="1" source="mGNgflJzTAv7n1PGVIst-10">
          <mxGeometry relative="1" as="geometry">
            <mxPoint x="380" y="60" as="targetPoint" />
          </mxGeometry>
        </mxCell>
        <mxCell id="mGNgflJzTAv7n1PGVIst-10" value="" style="rounded=1;whiteSpace=wrap;html=1;strokeWidth=5;fillWeight=4;hachureGap=8;hachureAngle=45;fillColor=#d5e8d4;sketch=1;align=left;strokeColor=#82b366;" vertex="1" parent="1">
          <mxGeometry x="260" y="120" width="170" height="70" as="geometry" />
        </mxCell>
        <mxCell id="mGNgflJzTAv7n1PGVIst-11" value="" style="rounded=1;whiteSpace=wrap;html=1;strokeWidth=5;fillWeight=4;hachureGap=8;hachureAngle=45;fillColor=#d5e8d4;sketch=1;align=left;strokeColor=#82b366;" vertex="1" parent="1">
          <mxGeometry x="260" y="190" width="170" height="70" as="geometry" />
        </mxCell>
        <mxCell id="mGNgflJzTAv7n1PGVIst-12" value="内存" style="text;html=1;strokeColor=#82b366;fillColor=#d5e8d4;align=center;verticalAlign=middle;whiteSpace=wrap;rounded=0;fontSize=23;shadow=1;" vertex="1" parent="1">
          <mxGeometry x="307.5" y="450" width="75" height="40" as="geometry" />
        </mxCell>
        <mxCell id="mGNgflJzTAv7n1PGVIst-16" value="页框" style="text;html=1;align=center;verticalAlign=middle;whiteSpace=wrap;rounded=0;fontSize=20;" vertex="1" parent="1">
          <mxGeometry x="350" y="20" width="70" height="40" as="geometry" />
        </mxCell>
        <mxCell id="mGNgflJzTAv7n1PGVIst-17" value="" style="rounded=1;whiteSpace=wrap;html=1;strokeWidth=5;fillWeight=4;hachureGap=8;hachureAngle=45;fillColor=#dae8fc;sketch=1;align=left;strokeColor=#6c8ebf;" vertex="1" parent="1">
          <mxGeometry x="610" y="120" width="170" height="70" as="geometry" />
        </mxCell>
        <mxCell id="mGNgflJzTAv7n1PGVIst-18" value="" style="rounded=1;whiteSpace=wrap;html=1;strokeWidth=5;fillWeight=4;hachureGap=8;hachureAngle=45;fillColor=#dae8fc;sketch=1;align=left;strokeColor=#6c8ebf;" vertex="1" parent="1">
          <mxGeometry x="610" y="190" width="170" height="70" as="geometry" />
        </mxCell>
        <mxCell id="mGNgflJzTAv7n1PGVIst-19" value="进程" style="text;html=1;strokeColor=#6c8ebf;fillColor=#dae8fc;align=center;verticalAlign=middle;whiteSpace=wrap;rounded=0;fontSize=23;shadow=1;" vertex="1" parent="1">
          <mxGeometry x="657.5" y="310" width="75" height="40" as="geometry" />
        </mxCell>
        <mxCell id="mGNgflJzTAv7n1PGVIst-20" style="rounded=0;orthogonalLoop=1;jettySize=auto;html=1;fillColor=#dae8fc;strokeColor=#6c8ebf;strokeWidth=4;exitX=0.25;exitY=0;exitDx=0;exitDy=0;" edge="1" parent="1" source="mGNgflJzTAv7n1PGVIst-17">
          <mxGeometry relative="1" as="geometry">
            <mxPoint x="670" y="60" as="targetPoint" />
            <mxPoint x="415.7894736842104" y="130" as="sourcePoint" />
          </mxGeometry>
        </mxCell>
        <mxCell id="mGNgflJzTAv7n1PGVIst-21" value="页面" style="text;html=1;align=center;verticalAlign=middle;whiteSpace=wrap;rounded=0;fontSize=20;" vertex="1" parent="1">
          <mxGeometry x="640" y="20" width="70" height="40" as="geometry" />
        </mxCell>
        <mxCell id="mGNgflJzTAv7n1PGVIst-23" value="" style="shape=table;html=1;whiteSpace=wrap;startSize=0;container=1;collapsible=0;childLayout=tableLayout;rounded=0;shadow=1;glass=0;sketch=0;fontSize=23;strokeColor=#6c8ebf;strokeWidth=2;align=left;fillColor=#dae8fc;" vertex="1" parent="1">
          <mxGeometry x="620" y="130" width="80" height="30" as="geometry" />
        </mxCell>
        <mxCell id="mGNgflJzTAv7n1PGVIst-24" value="" style="shape=partialRectangle;html=1;whiteSpace=wrap;collapsible=0;dropTarget=0;pointerEvents=0;fillColor=none;top=0;left=0;bottom=0;right=0;points=[[0,0.5],[1,0.5]];portConstraint=eastwest;rounded=0;shadow=1;glass=0;sketch=0;fontSize=23;strokeColor=default;strokeWidth=4;align=left;" vertex="1" parent="mGNgflJzTAv7n1PGVIst-23">
          <mxGeometry width="80" height="11" as="geometry" />
        </mxCell>
        <mxCell id="mGNgflJzTAv7n1PGVIst-25" value="" style="shape=partialRectangle;html=1;whiteSpace=wrap;connectable=0;fillColor=none;top=0;left=0;bottom=0;right=0;overflow=hidden;pointerEvents=1;rounded=0;shadow=1;glass=0;sketch=0;fontSize=23;strokeColor=default;strokeWidth=4;align=left;" vertex="1" parent="mGNgflJzTAv7n1PGVIst-24">
          <mxGeometry width="27" height="11" as="geometry">
            <mxRectangle width="27" height="11" as="alternateBounds" />
          </mxGeometry>
        </mxCell>
        <mxCell id="mGNgflJzTAv7n1PGVIst-26" value="" style="shape=partialRectangle;html=1;whiteSpace=wrap;connectable=0;fillColor=none;top=0;left=0;bottom=0;right=0;overflow=hidden;pointerEvents=1;rounded=0;shadow=1;glass=0;sketch=0;fontSize=23;strokeColor=default;strokeWidth=4;align=left;" vertex="1" parent="mGNgflJzTAv7n1PGVIst-24">
          <mxGeometry x="27" width="26" height="11" as="geometry">
            <mxRectangle width="26" height="11" as="alternateBounds" />
          </mxGeometry>
        </mxCell>
        <mxCell id="mGNgflJzTAv7n1PGVIst-27" value="" style="shape=partialRectangle;html=1;whiteSpace=wrap;connectable=0;fillColor=none;top=0;left=0;bottom=0;right=0;overflow=hidden;pointerEvents=1;rounded=0;shadow=1;glass=0;sketch=0;fontSize=23;strokeColor=default;strokeWidth=4;align=left;" vertex="1" parent="mGNgflJzTAv7n1PGVIst-24">
          <mxGeometry x="53" width="27" height="11" as="geometry">
            <mxRectangle width="27" height="11" as="alternateBounds" />
          </mxGeometry>
        </mxCell>
        <mxCell id="mGNgflJzTAv7n1PGVIst-28" value="" style="shape=partialRectangle;html=1;whiteSpace=wrap;collapsible=0;dropTarget=0;pointerEvents=0;fillColor=none;top=0;left=0;bottom=0;right=0;points=[[0,0.5],[1,0.5]];portConstraint=eastwest;rounded=0;shadow=1;glass=0;sketch=0;fontSize=23;strokeColor=default;strokeWidth=4;align=left;" vertex="1" parent="mGNgflJzTAv7n1PGVIst-23">
          <mxGeometry y="11" width="80" height="9" as="geometry" />
        </mxCell>
        <mxCell id="mGNgflJzTAv7n1PGVIst-29" value="" style="shape=partialRectangle;html=1;whiteSpace=wrap;connectable=0;fillColor=none;top=0;left=0;bottom=0;right=0;overflow=hidden;pointerEvents=1;rounded=0;shadow=1;glass=0;sketch=0;fontSize=23;strokeColor=default;strokeWidth=4;align=left;" vertex="1" parent="mGNgflJzTAv7n1PGVIst-28">
          <mxGeometry width="27" height="9" as="geometry">
            <mxRectangle width="27" height="9" as="alternateBounds" />
          </mxGeometry>
        </mxCell>
        <mxCell id="mGNgflJzTAv7n1PGVIst-30" value="" style="shape=partialRectangle;html=1;whiteSpace=wrap;connectable=0;fillColor=none;top=0;left=0;bottom=0;right=0;overflow=hidden;pointerEvents=1;rounded=0;shadow=1;glass=0;sketch=0;fontSize=23;strokeColor=default;strokeWidth=4;align=left;" vertex="1" parent="mGNgflJzTAv7n1PGVIst-28">
          <mxGeometry x="27" width="26" height="9" as="geometry">
            <mxRectangle width="26" height="9" as="alternateBounds" />
          </mxGeometry>
        </mxCell>
        <mxCell id="mGNgflJzTAv7n1PGVIst-31" value="" style="shape=partialRectangle;html=1;whiteSpace=wrap;connectable=0;fillColor=none;top=0;left=0;bottom=0;right=0;overflow=hidden;pointerEvents=1;rounded=0;shadow=1;glass=0;sketch=0;fontSize=23;strokeColor=default;strokeWidth=4;align=left;" vertex="1" parent="mGNgflJzTAv7n1PGVIst-28">
          <mxGeometry x="53" width="27" height="9" as="geometry">
            <mxRectangle width="27" height="9" as="alternateBounds" />
          </mxGeometry>
        </mxCell>
        <mxCell id="mGNgflJzTAv7n1PGVIst-32" value="" style="shape=partialRectangle;html=1;whiteSpace=wrap;collapsible=0;dropTarget=0;pointerEvents=0;fillColor=none;top=0;left=0;bottom=0;right=0;points=[[0,0.5],[1,0.5]];portConstraint=eastwest;rounded=0;shadow=1;glass=0;sketch=0;fontSize=23;strokeColor=default;strokeWidth=4;align=left;" vertex="1" parent="mGNgflJzTAv7n1PGVIst-23">
          <mxGeometry y="20" width="80" height="10" as="geometry" />
        </mxCell>
        <mxCell id="mGNgflJzTAv7n1PGVIst-33" value="" style="shape=partialRectangle;html=1;whiteSpace=wrap;connectable=0;fillColor=none;top=0;left=0;bottom=0;right=0;overflow=hidden;pointerEvents=1;rounded=0;shadow=1;glass=0;sketch=0;fontSize=23;strokeColor=default;strokeWidth=4;align=left;" vertex="1" parent="mGNgflJzTAv7n1PGVIst-32">
          <mxGeometry width="27" height="10" as="geometry">
            <mxRectangle width="27" height="10" as="alternateBounds" />
          </mxGeometry>
        </mxCell>
        <mxCell id="mGNgflJzTAv7n1PGVIst-34" value="" style="shape=partialRectangle;html=1;whiteSpace=wrap;connectable=0;fillColor=none;top=0;left=0;bottom=0;right=0;overflow=hidden;pointerEvents=1;rounded=0;shadow=1;glass=0;sketch=0;fontSize=23;strokeColor=default;strokeWidth=4;align=left;" vertex="1" parent="mGNgflJzTAv7n1PGVIst-32">
          <mxGeometry x="27" width="26" height="10" as="geometry">
            <mxRectangle width="26" height="10" as="alternateBounds" />
          </mxGeometry>
        </mxCell>
        <mxCell id="mGNgflJzTAv7n1PGVIst-35" value="" style="shape=partialRectangle;html=1;whiteSpace=wrap;connectable=0;fillColor=none;top=0;left=0;bottom=0;right=0;overflow=hidden;pointerEvents=1;rounded=0;shadow=1;glass=0;sketch=0;fontSize=23;strokeColor=default;strokeWidth=4;align=left;" vertex="1" parent="mGNgflJzTAv7n1PGVIst-32">
          <mxGeometry x="53" width="27" height="10" as="geometry">
            <mxRectangle width="27" height="10" as="alternateBounds" />
          </mxGeometry>
        </mxCell>
        <mxCell id="mGNgflJzTAv7n1PGVIst-36" style="rounded=0;orthogonalLoop=1;jettySize=auto;html=1;fillColor=#dae8fc;strokeColor=#6c8ebf;strokeWidth=4;" edge="1" parent="1" source="mGNgflJzTAv7n1PGVIst-24">
          <mxGeometry relative="1" as="geometry">
            <mxPoint x="860" y="70" as="targetPoint" />
            <mxPoint x="662.5" y="130" as="sourcePoint" />
          </mxGeometry>
        </mxCell>
        <mxCell id="mGNgflJzTAv7n1PGVIst-37" value="一个页面可以有好多地址" style="text;html=1;align=center;verticalAlign=middle;whiteSpace=wrap;rounded=0;fontSize=20;" vertex="1" parent="1">
          <mxGeometry x="850" y="50" width="250" height="40" as="geometry" />
        </mxCell>
        <mxCell id="mGNgflJzTAv7n1PGVIst-38" value="逻辑地址表示为（页号，页内偏移）" style="rounded=1;whiteSpace=wrap;html=1;shadow=1;glass=0;sketch=0;fontSize=23;strokeColor=default;strokeWidth=2;gradientColor=none;align=center;" vertex="1" parent="1">
          <mxGeometry x="860" y="130" width="395" height="50" as="geometry" />
        </mxCell>
      </root>
    </mxGraphModel>
  </diagram>
</mxfile>
